<svg width="204" height="199" viewBox="0 0 204 199" fill="none" xmlns="http://www.w3.org/2000/svg">
<path d="M68.2333 160.157C68.2333 160.98 67.2873 161.638 66.0946 161.638C64.7373 161.761 63.7913 161.103 63.7913 160.157C63.7913 159.334 64.7373 158.676 65.93 158.676C67.1639 158.553 68.2333 159.211 68.2333 160.157ZM55.4421 158.306C55.1542 159.129 55.9768 160.075 57.2107 160.321C58.28 160.733 59.5139 160.321 59.7607 159.499C60.0074 158.676 59.226 157.73 57.9921 157.36C56.9227 157.072 55.73 157.484 55.4421 158.306ZM73.6212 157.607C72.4284 157.895 71.6059 158.676 71.7292 159.622C71.8526 160.445 72.922 160.98 74.1559 160.692C75.3486 160.404 76.1712 159.622 76.0478 158.8C75.9244 158.018 74.8139 157.484 73.6212 157.607ZM100.684 0C43.638 0 0 43.309 0 100.355C0 145.967 28.7082 184.999 69.7139 198.736C74.9784 199.682 76.8293 196.433 76.8293 193.759C76.8293 191.209 76.7059 177.143 76.7059 168.506C76.7059 168.506 47.9155 174.676 41.8695 156.25C41.8695 156.25 37.1808 144.281 30.4356 141.196C30.4356 141.196 21.017 134.739 31.0936 134.863C31.0936 134.863 41.3348 135.685 46.9695 145.474C55.9768 161.35 71.0712 156.784 76.9527 154.07C77.8986 147.489 80.572 142.924 83.5333 140.209C60.5421 137.659 37.3453 134.328 37.3453 94.7616C37.3453 83.4511 40.4711 77.7752 47.0518 70.5365C45.9824 67.8631 42.4864 56.8405 48.1211 42.6098C56.7171 39.9364 76.5002 53.7147 76.5002 53.7147C84.7261 51.4114 93.5688 50.2187 102.329 50.2187C111.09 50.2187 119.933 51.4114 128.158 53.7147C128.158 53.7147 147.942 39.8953 156.538 42.6098C162.172 56.8816 158.676 67.8631 157.607 70.5365C164.188 77.8164 168.218 83.4922 168.218 94.7616C168.218 134.451 143.993 137.618 121.002 140.209C124.786 143.458 127.994 149.628 127.994 159.293C127.994 173.154 127.871 190.305 127.871 193.677C127.871 196.351 129.762 199.6 134.986 198.654C176.115 184.999 204.001 145.967 204.001 100.355C204.001 43.309 157.73 0 100.684 0ZM39.9775 141.854C39.4429 142.266 39.5662 143.212 40.2654 143.993C40.9235 144.651 41.8695 144.939 42.4042 144.404C42.9388 143.993 42.8154 143.047 42.1163 142.266C41.4582 141.608 40.5122 141.32 39.9775 141.854ZM35.5356 138.523C35.2477 139.058 35.659 139.716 36.4816 140.127C37.1396 140.538 37.9622 140.415 38.2501 139.839C38.538 139.304 38.1267 138.646 37.3041 138.235C36.4816 137.988 35.8235 138.112 35.5356 138.523ZM48.8614 153.165C48.2034 153.7 48.4501 154.934 49.3961 155.715C50.3421 156.661 51.5348 156.784 52.0695 156.126C52.6042 155.592 52.3574 154.358 51.5348 153.576C50.63 152.63 49.3961 152.507 48.8614 153.165ZM44.1727 147.119C43.5146 147.53 43.5146 148.6 44.1727 149.546C44.8308 150.492 45.9413 150.903 46.4759 150.492C47.134 149.957 47.134 148.888 46.4759 147.942C45.9001 146.996 44.8308 146.584 44.1727 147.119Z" fill="black"/>
</svg>
