<svg width="1382" height="1382" viewBox="0 0 1382 1382" fill="none" xmlns="http://www.w3.org/2000/svg">
<path d="M691 0C309.359 0 0 309.359 0 691C0 1072.64 309.359 1382 691 1382C1072.64 1382 1382 1072.64 1382 691C1382 309.406 1072.64 0.0471511 691 0ZM1007.9 996.587C995.502 1016.96 968.956 1023.32 948.681 1010.92C786.434 911.762 582.175 889.365 341.657 944.296C318.459 949.624 295.355 935.101 290.074 911.903C284.746 888.705 299.221 865.601 322.467 860.32C585.664 800.202 811.471 826.088 993.616 937.365C1013.89 949.86 1020.35 976.312 1007.9 996.587ZM1092.44 808.501C1076.84 833.868 1043.64 841.789 1018.32 826.229C832.642 712.077 549.452 679.024 329.775 745.695C301.296 754.324 271.213 738.245 262.538 709.813C253.956 681.334 270.035 651.299 298.467 642.623C549.405 566.474 861.404 603.346 1074.67 734.426C1100.04 750.033 1108.05 783.18 1092.44 808.501ZM1099.71 612.54C876.964 480.282 509.562 468.117 296.911 532.619C262.773 542.993 226.656 523.708 216.329 489.57C206.003 455.433 225.241 419.315 259.426 408.942C503.527 334.867 909.263 349.154 1165.67 501.358C1196.37 519.606 1206.46 559.26 1188.26 589.908C1170.1 620.65 1130.35 630.788 1099.71 612.54Z" fill="#1DB954"/>
</svg>
